# xmcd
#
# Track frame offsets:
#	150
#	23100
#	36168
#	54561
#	80789
#	103334
#	127683
#	148484
#	171478
#	191801
#
# Disc length: 2715 seconds
#
# Revision: 12
# Processed by: cddbd v1.5.2PL0 Copyright (c) Steve Scherf et al.
# Submitted via: Jack! The Knife 20 Magnifico
#
DISCID=950a990a
DTITLE=Stryper - Soldiers Under Command
DYEAR=1985
DGENRE=Metal
TTITLE0=Soldiers Under Command
TTITLE1=Makes Me Wanna Sing
TTITLE2=Together Forever
TTITLE3=First Love
TTITLE4=The Rock That Makes Me Roll
TTITLE5=Reach Out
TTITLE6=(Waiting For) A Love That's Real
TTITLE7=Together As One
TTITLE8=Surrender
TTITLE9=Battle Hymn Of The Republic
EXTD=Michael Wagener
EXTT0=M. Sweet, R. Sweet
EXTT1=Michael Sweet
EXTT2=Michael Sweet
EXTT3=Michael Sweet
EXTT4=Michael Sweet
EXTT5=M. Sweet, R. Sweet
EXTT6=Michael Sweet
EXTT7=Michael Sweet
EXTT8=Michael Sweet
EXTT9=J. Ward Howe, M. Sweet
PLAYORDER=
